<svg width="800" height="440" xmlns="http://www.w3.org/2000/svg">
  <defs>
    <linearGradient id="bg" x1="0%" y1="0%" x2="100%" y2="100%">
      <stop offset="0%" style="stop-color:#ffffff;stop-opacity:1" />
      <stop offset="100%" style="stop-color:#f8fafc;stop-opacity:1" />
    </linearGradient>
    <linearGradient id="cardBg" x1="0%" y1="0%" x2="100%" y2="100%">
      <stop offset="0%" style="stop-color:#ffffff;stop-opacity:1" />
      <stop offset="100%" style="stop-color:#f1f5f9;stop-opacity:1" />
    </linearGradient>
    <filter id="shadow">
      <feDropShadow dx="0" dy="2" stdDeviation="8" flood-color="#000000" flood-opacity="0.1"/>
    </filter>
  </defs>

  <rect width="800" height="440" fill="url(#bg)" rx="16"
        stroke="#e2e8f0" stroke-width="1"/>

  <g transform="translate(30,20)">
    <rect width="236" height="192" fill="url(#cardBg)" rx="12"
          filter="url(#shadow)" stroke="#e2e8f0" stroke-width="1"/>

    <!-- Title -->
    <text x="12" y="22" fill="#1f2937" font-size="11" font-weight="700"
          font-family="system-ui, -apple-system, sans-serif">
        🚀 Code Commits
    </text>

    <!-- Final value badge -->
    <text x="224" y="22" fill="#FF6384" font-size="12" font-weight="700"
          font-family="system-ui, -apple-system, sans-serif" text-anchor="end">
        1,170
    </text>

    <!-- Grid lines -->
    <line x1="30" y1="36" x2="226" y2="36"
          stroke="#e2e8f0" stroke-width="0.5" stroke-dasharray="4,3" />
    <line x1="30" y1="96.0" x2="226" y2="96.0"
          stroke="#e2e8f0" stroke-width="0.5" stroke-dasharray="4,3" />
    <line x1="30" y1="156" x2="226" y2="156"
          stroke="#e2e8f0" stroke-width="0.5" stroke-dasharray="4,3" />

    <!-- Y-axis ticks -->
    <text x="26" y="159" fill="#9ca3af" font-size="8"
          font-family="Monaco, monospace" text-anchor="end">0</text>
    <text x="26" y="104.5" fill="#9ca3af" font-size="8"
          font-family="Monaco, monospace" text-anchor="end">585</text>
    <text x="26" y="49.9" fill="#9ca3af" font-size="8"
          font-family="Monaco, monospace" text-anchor="end">1170</text>

    <!-- Area fill -->
    <polygon points="30.0,148.4 47.8,141.9 65.6,141.5 83.5,140.1 101.3,126.9 119.1,115.2 136.9,111.6 154.7,106.9 172.5,91.3 190.4,65.9 208.2,65.0 226.0,46.9 226.0,156 30.0,156" fill="#FF6384" opacity="0.08" />

    <!-- Sparkline -->
    <polyline points="30.0,148.4 47.8,141.9 65.6,141.5 83.5,140.1 101.3,126.9 119.1,115.2 136.9,111.6 154.7,106.9 172.5,91.3 190.4,65.9 208.2,65.0 226.0,46.9" fill="none" stroke="#FF6384"
             stroke-width="2" stroke-linecap="round" stroke-linejoin="round" />

    <!-- Last point dot -->
    <circle cx="226.0" cy="46.9" r="3.5" fill="#FF6384" />

    <!-- X-axis labels -->
    <text x="30" y="170" fill="#9ca3af" font-size="8"
          font-family="system-ui, -apple-system, sans-serif">W06</text>
    <text x="226" y="170" fill="#9ca3af" font-size="8"
          font-family="system-ui, -apple-system, sans-serif" text-anchor="end">W17</text>
    </g>
  <g transform="translate(282,20)">
    <rect width="236" height="192" fill="url(#cardBg)" rx="12"
          filter="url(#shadow)" stroke="#e2e8f0" stroke-width="1"/>

    <!-- Title -->
    <text x="12" y="22" fill="#1f2937" font-size="11" font-weight="700"
          font-family="system-ui, -apple-system, sans-serif">
        💬 User Talks
    </text>

    <!-- Final value badge -->
    <text x="224" y="22" fill="#36A2EB" font-size="12" font-weight="700"
          font-family="system-ui, -apple-system, sans-serif" text-anchor="end">
        45
    </text>

    <!-- Grid lines -->
    <line x1="30" y1="36" x2="226" y2="36"
          stroke="#e2e8f0" stroke-width="0.5" stroke-dasharray="4,3" />
    <line x1="30" y1="96.0" x2="226" y2="96.0"
          stroke="#e2e8f0" stroke-width="0.5" stroke-dasharray="4,3" />
    <line x1="30" y1="156" x2="226" y2="156"
          stroke="#e2e8f0" stroke-width="0.5" stroke-dasharray="4,3" />

    <!-- Y-axis ticks -->
    <text x="26" y="159" fill="#9ca3af" font-size="8"
          font-family="Monaco, monospace" text-anchor="end">0</text>
    <text x="26" y="105.7" fill="#9ca3af" font-size="8"
          font-family="Monaco, monospace" text-anchor="end">22</text>
    <text x="26" y="49.9" fill="#9ca3af" font-size="8"
          font-family="Monaco, monospace" text-anchor="end">45</text>

    <!-- Area fill -->
    <polygon points="30.0,146.3 47.8,143.9 65.6,141.5 83.5,129.3 101.3,119.6 119.1,100.2 136.9,88.1 154.7,80.8 172.5,73.6 190.4,68.7 208.2,59.0 226.0,46.9 226.0,156 30.0,156" fill="#36A2EB" opacity="0.08" />

    <!-- Sparkline -->
    <polyline points="30.0,146.3 47.8,143.9 65.6,141.5 83.5,129.3 101.3,119.6 119.1,100.2 136.9,88.1 154.7,80.8 172.5,73.6 190.4,68.7 208.2,59.0 226.0,46.9" fill="none" stroke="#36A2EB"
             stroke-width="2" stroke-linecap="round" stroke-linejoin="round" />

    <!-- Last point dot -->
    <circle cx="226.0" cy="46.9" r="3.5" fill="#36A2EB" />

    <!-- X-axis labels -->
    <text x="30" y="170" fill="#9ca3af" font-size="8"
          font-family="system-ui, -apple-system, sans-serif">W06</text>
    <text x="226" y="170" fill="#9ca3af" font-size="8"
          font-family="system-ui, -apple-system, sans-serif" text-anchor="end">W17</text>
    </g>
  <g transform="translate(534,20)">
    <rect width="236" height="192" fill="url(#cardBg)" rx="12"
          filter="url(#shadow)" stroke="#e2e8f0" stroke-width="1"/>

    <!-- Title -->
    <text x="12" y="22" fill="#1f2937" font-size="11" font-weight="700"
          font-family="system-ui, -apple-system, sans-serif">
        📱 Social Posts
    </text>

    <!-- Final value badge -->
    <text x="224" y="22" fill="#E6B800" font-size="12" font-weight="700"
          font-family="system-ui, -apple-system, sans-serif" text-anchor="end">
        79
    </text>

    <!-- Grid lines -->
    <line x1="30" y1="36" x2="226" y2="36"
          stroke="#e2e8f0" stroke-width="0.5" stroke-dasharray="4,3" />
    <line x1="30" y1="96.0" x2="226" y2="96.0"
          stroke="#e2e8f0" stroke-width="0.5" stroke-dasharray="4,3" />
    <line x1="30" y1="156" x2="226" y2="156"
          stroke="#e2e8f0" stroke-width="0.5" stroke-dasharray="4,3" />

    <!-- Y-axis ticks -->
    <text x="26" y="159" fill="#9ca3af" font-size="8"
          font-family="Monaco, monospace" text-anchor="end">0</text>
    <text x="26" y="105.1" fill="#9ca3af" font-size="8"
          font-family="Monaco, monospace" text-anchor="end">39</text>
    <text x="26" y="49.9" fill="#9ca3af" font-size="8"
          font-family="Monaco, monospace" text-anchor="end">79</text>

    <!-- Area fill -->
    <polygon points="30.0,127.0 47.8,114.6 65.6,110.4 83.5,96.6 101.3,88.3 119.1,80.1 136.9,71.8 154.7,66.2 172.5,64.9 190.4,64.9 208.2,60.7 226.0,46.9 226.0,156 30.0,156" fill="#E6B800" opacity="0.08" />

    <!-- Sparkline -->
    <polyline points="30.0,127.0 47.8,114.6 65.6,110.4 83.5,96.6 101.3,88.3 119.1,80.1 136.9,71.8 154.7,66.2 172.5,64.9 190.4,64.9 208.2,60.7 226.0,46.9" fill="none" stroke="#E6B800"
             stroke-width="2" stroke-linecap="round" stroke-linejoin="round" />

    <!-- Last point dot -->
    <circle cx="226.0" cy="46.9" r="3.5" fill="#E6B800" />

    <!-- X-axis labels -->
    <text x="30" y="170" fill="#9ca3af" font-size="8"
          font-family="system-ui, -apple-system, sans-serif">W06</text>
    <text x="226" y="170" fill="#9ca3af" font-size="8"
          font-family="system-ui, -apple-system, sans-serif" text-anchor="end">W17</text>
    </g>
  <g transform="translate(30,228)">
    <rect width="236" height="192" fill="url(#cardBg)" rx="12"
          filter="url(#shadow)" stroke="#e2e8f0" stroke-width="1"/>

    <!-- Title -->
    <text x="12" y="22" fill="#1f2937" font-size="11" font-weight="700"
          font-family="system-ui, -apple-system, sans-serif">
        ☕ Coffee Chats
    </text>

    <!-- Final value badge -->
    <text x="224" y="22" fill="#4BC0C0" font-size="12" font-weight="700"
          font-family="system-ui, -apple-system, sans-serif" text-anchor="end">
        19
    </text>

    <!-- Grid lines -->
    <line x1="30" y1="36" x2="226" y2="36"
          stroke="#e2e8f0" stroke-width="0.5" stroke-dasharray="4,3" />
    <line x1="30" y1="96.0" x2="226" y2="96.0"
          stroke="#e2e8f0" stroke-width="0.5" stroke-dasharray="4,3" />
    <line x1="30" y1="156" x2="226" y2="156"
          stroke="#e2e8f0" stroke-width="0.5" stroke-dasharray="4,3" />

    <!-- Y-axis ticks -->
    <text x="26" y="159" fill="#9ca3af" font-size="8"
          font-family="Monaco, monospace" text-anchor="end">0</text>
    <text x="26" y="107.3" fill="#9ca3af" font-size="8"
          font-family="Monaco, monospace" text-anchor="end">9</text>
    <text x="26" y="49.9" fill="#9ca3af" font-size="8"
          font-family="Monaco, monospace" text-anchor="end">19</text>

    <!-- Area fill -->
    <polygon points="30.0,156.0 47.8,144.5 65.6,138.8 83.5,127.3 101.3,121.6 119.1,98.6 136.9,87.1 154.7,81.4 172.5,75.6 190.4,75.6 208.2,64.1 226.0,46.9 226.0,156 30.0,156" fill="#4BC0C0" opacity="0.08" />

    <!-- Sparkline -->
    <polyline points="30.0,156.0 47.8,144.5 65.6,138.8 83.5,127.3 101.3,121.6 119.1,98.6 136.9,87.1 154.7,81.4 172.5,75.6 190.4,75.6 208.2,64.1 226.0,46.9" fill="none" stroke="#4BC0C0"
             stroke-width="2" stroke-linecap="round" stroke-linejoin="round" />

    <!-- Last point dot -->
    <circle cx="226.0" cy="46.9" r="3.5" fill="#4BC0C0" />

    <!-- X-axis labels -->
    <text x="30" y="170" fill="#9ca3af" font-size="8"
          font-family="system-ui, -apple-system, sans-serif">W06</text>
    <text x="226" y="170" fill="#9ca3af" font-size="8"
          font-family="system-ui, -apple-system, sans-serif" text-anchor="end">W17</text>
    </g>
  <g transform="translate(282,228)">
    <rect width="236" height="192" fill="url(#cardBg)" rx="12"
          filter="url(#shadow)" stroke="#e2e8f0" stroke-width="1"/>

    <!-- Title -->
    <text x="12" y="22" fill="#1f2937" font-size="11" font-weight="700"
          font-family="system-ui, -apple-system, sans-serif">
        🏃 Workouts
    </text>

    <!-- Final value badge -->
    <text x="224" y="22" fill="#9966FF" font-size="12" font-weight="700"
          font-family="system-ui, -apple-system, sans-serif" text-anchor="end">
        79
    </text>

    <!-- Grid lines -->
    <line x1="30" y1="36" x2="226" y2="36"
          stroke="#e2e8f0" stroke-width="0.5" stroke-dasharray="4,3" />
    <line x1="30" y1="96.0" x2="226" y2="96.0"
          stroke="#e2e8f0" stroke-width="0.5" stroke-dasharray="4,3" />
    <line x1="30" y1="156" x2="226" y2="156"
          stroke="#e2e8f0" stroke-width="0.5" stroke-dasharray="4,3" />

    <!-- Y-axis ticks -->
    <text x="26" y="159" fill="#9ca3af" font-size="8"
          font-family="Monaco, monospace" text-anchor="end">0</text>
    <text x="26" y="105.1" fill="#9ca3af" font-size="8"
          font-family="Monaco, monospace" text-anchor="end">39</text>
    <text x="26" y="49.9" fill="#9ca3af" font-size="8"
          font-family="Monaco, monospace" text-anchor="end">79</text>

    <!-- Area fill -->
    <polygon points="30.0,140.8 47.8,138.0 65.6,135.3 83.5,116.0 101.3,103.5 119.1,91.1 136.9,78.7 154.7,69.0 172.5,64.9 190.4,62.1 208.2,53.8 226.0,46.9 226.0,156 30.0,156" fill="#9966FF" opacity="0.08" />

    <!-- Sparkline -->
    <polyline points="30.0,140.8 47.8,138.0 65.6,135.3 83.5,116.0 101.3,103.5 119.1,91.1 136.9,78.7 154.7,69.0 172.5,64.9 190.4,62.1 208.2,53.8 226.0,46.9" fill="none" stroke="#9966FF"
             stroke-width="2" stroke-linecap="round" stroke-linejoin="round" />

    <!-- Last point dot -->
    <circle cx="226.0" cy="46.9" r="3.5" fill="#9966FF" />

    <!-- X-axis labels -->
    <text x="30" y="170" fill="#9ca3af" font-size="8"
          font-family="system-ui, -apple-system, sans-serif">W06</text>
    <text x="226" y="170" fill="#9ca3af" font-size="8"
          font-family="system-ui, -apple-system, sans-serif" text-anchor="end">W17</text>
    </g>
  <g transform="translate(534,228)">
    <rect width="236" height="192" fill="url(#cardBg)" rx="12"
          filter="url(#shadow)" stroke="#e2e8f0" stroke-width="1"/>

    <!-- Title -->
    <text x="12" y="22" fill="#1f2937" font-size="11" font-weight="700"
          font-family="system-ui, -apple-system, sans-serif">
        📝 Blog Posts
    </text>

    <!-- Final value badge -->
    <text x="224" y="22" fill="#FF9F40" font-size="12" font-weight="700"
          font-family="system-ui, -apple-system, sans-serif" text-anchor="end">
        9
    </text>

    <!-- Grid lines -->
    <line x1="30" y1="36" x2="226" y2="36"
          stroke="#e2e8f0" stroke-width="0.5" stroke-dasharray="4,3" />
    <line x1="30" y1="96.0" x2="226" y2="96.0"
          stroke="#e2e8f0" stroke-width="0.5" stroke-dasharray="4,3" />
    <line x1="30" y1="156" x2="226" y2="156"
          stroke="#e2e8f0" stroke-width="0.5" stroke-dasharray="4,3" />

    <!-- Y-axis ticks -->
    <text x="26" y="159" fill="#9ca3af" font-size="8"
          font-family="Monaco, monospace" text-anchor="end">0</text>
    <text x="26" y="110.5" fill="#9ca3af" font-size="8"
          font-family="Monaco, monospace" text-anchor="end">4</text>
    <text x="26" y="49.9" fill="#9ca3af" font-size="8"
          font-family="Monaco, monospace" text-anchor="end">9</text>

    <!-- Area fill -->
    <polygon points="30.0,156.0 47.8,119.6 65.6,95.4 83.5,46.9 101.3,46.9 119.1,46.9 136.9,46.9 154.7,46.9 172.5,46.9 190.4,46.9 208.2,46.9 226.0,46.9 226.0,156 30.0,156" fill="#FF9F40" opacity="0.08" />

    <!-- Sparkline -->
    <polyline points="30.0,156.0 47.8,119.6 65.6,95.4 83.5,46.9 101.3,46.9 119.1,46.9 136.9,46.9 154.7,46.9 172.5,46.9 190.4,46.9 208.2,46.9 226.0,46.9" fill="none" stroke="#FF9F40"
             stroke-width="2" stroke-linecap="round" stroke-linejoin="round" />

    <!-- Last point dot -->
    <circle cx="226.0" cy="46.9" r="3.5" fill="#FF9F40" />

    <!-- X-axis labels -->
    <text x="30" y="170" fill="#9ca3af" font-size="8"
          font-family="system-ui, -apple-system, sans-serif">W06</text>
    <text x="226" y="170" fill="#9ca3af" font-size="8"
          font-family="system-ui, -apple-system, sans-serif" text-anchor="end">W17</text>
    </g>
</svg>