<svg width="800" height="440" xmlns="http://www.w3.org/2000/svg">
  <defs>
    <linearGradient id="bg" x1="0%" y1="0%" x2="100%" y2="100%">
      <stop offset="0%" style="stop-color:#ffffff;stop-opacity:1" />
      <stop offset="100%" style="stop-color:#f8fafc;stop-opacity:1" />
    </linearGradient>
    <linearGradient id="cardBg" x1="0%" y1="0%" x2="100%" y2="100%">
      <stop offset="0%" style="stop-color:#ffffff;stop-opacity:1" />
      <stop offset="100%" style="stop-color:#f1f5f9;stop-opacity:1" />
    </linearGradient>
    <filter id="shadow">
      <feDropShadow dx="0" dy="2" stdDeviation="8" flood-color="#000000" flood-opacity="0.1"/>
    </filter>
  </defs>

  <rect width="800" height="440" fill="url(#bg)" rx="16"
        stroke="#e2e8f0" stroke-width="1"/>

  <g transform="translate(30,20)">
    <rect width="236" height="192" fill="url(#cardBg)" rx="12"
          filter="url(#shadow)" stroke="#e2e8f0" stroke-width="1"/>

    <!-- Title -->
    <text x="12" y="22" fill="#1f2937" font-size="11" font-weight="700"
          font-family="system-ui, -apple-system, sans-serif">
        🚀 Code Commits
    </text>

    <!-- Final value badge -->
    <text x="224" y="22" fill="#FF6384" font-size="12" font-weight="700"
          font-family="system-ui, -apple-system, sans-serif" text-anchor="end">
        994
    </text>

    <!-- Grid lines -->
    <line x1="30" y1="36" x2="226" y2="36"
          stroke="#e2e8f0" stroke-width="0.5" stroke-dasharray="4,3" />
    <line x1="30" y1="96.0" x2="226" y2="96.0"
          stroke="#e2e8f0" stroke-width="0.5" stroke-dasharray="4,3" />
    <line x1="30" y1="156" x2="226" y2="156"
          stroke="#e2e8f0" stroke-width="0.5" stroke-dasharray="4,3" />

    <!-- Y-axis ticks -->
    <text x="26" y="159" fill="#9ca3af" font-size="8"
          font-family="Monaco, monospace" text-anchor="end">0</text>
    <text x="26" y="104.5" fill="#9ca3af" font-size="8"
          font-family="Monaco, monospace" text-anchor="end">497</text>
    <text x="26" y="49.9" fill="#9ca3af" font-size="8"
          font-family="Monaco, monospace" text-anchor="end">994</text>

    <!-- Area fill -->
    <polygon points="30.0,150.4 47.8,132.1 65.6,102.2 83.5,101.1 101.3,79.8 119.1,76.9 136.9,70.2 154.7,61.2 172.5,51.4 190.4,47.0 208.2,46.9 226.0,46.9 226.0,156 30.0,156" fill="#FF6384" opacity="0.08" />

    <!-- Sparkline -->
    <polyline points="30.0,150.4 47.8,132.1 65.6,102.2 83.5,101.1 101.3,79.8 119.1,76.9 136.9,70.2 154.7,61.2 172.5,51.4 190.4,47.0 208.2,46.9 226.0,46.9" fill="none" stroke="#FF6384"
             stroke-width="2" stroke-linecap="round" stroke-linejoin="round" />

    <!-- Last point dot -->
    <circle cx="226.0" cy="46.9" r="3.5" fill="#FF6384" />

    <!-- X-axis labels -->
    <text x="30" y="170" fill="#9ca3af" font-size="8"
          font-family="system-ui, -apple-system, sans-serif">W13</text>
    <text x="226" y="170" fill="#9ca3af" font-size="8"
          font-family="system-ui, -apple-system, sans-serif" text-anchor="end">W24</text>
    </g>
  <g transform="translate(282,20)">
    <rect width="236" height="192" fill="url(#cardBg)" rx="12"
          filter="url(#shadow)" stroke="#e2e8f0" stroke-width="1"/>

    <!-- Title -->
    <text x="12" y="22" fill="#1f2937" font-size="11" font-weight="700"
          font-family="system-ui, -apple-system, sans-serif">
        💬 User Talks
    </text>

    <!-- Final value badge -->
    <text x="224" y="22" fill="#36A2EB" font-size="12" font-weight="700"
          font-family="system-ui, -apple-system, sans-serif" text-anchor="end">
        33
    </text>

    <!-- Grid lines -->
    <line x1="30" y1="36" x2="226" y2="36"
          stroke="#e2e8f0" stroke-width="0.5" stroke-dasharray="4,3" />
    <line x1="30" y1="96.0" x2="226" y2="96.0"
          stroke="#e2e8f0" stroke-width="0.5" stroke-dasharray="4,3" />
    <line x1="30" y1="156" x2="226" y2="156"
          stroke="#e2e8f0" stroke-width="0.5" stroke-dasharray="4,3" />

    <!-- Y-axis ticks -->
    <text x="26" y="159" fill="#9ca3af" font-size="8"
          font-family="Monaco, monospace" text-anchor="end">0</text>
    <text x="26" y="106.1" fill="#9ca3af" font-size="8"
          font-family="Monaco, monospace" text-anchor="end">16</text>
    <text x="26" y="49.9" fill="#9ca3af" font-size="8"
          font-family="Monaco, monospace" text-anchor="end">33</text>

    <!-- Area fill -->
    <polygon points="30.0,146.1 47.8,136.2 65.6,129.6 83.5,116.3 101.3,99.8 119.1,89.9 136.9,76.7 154.7,70.0 172.5,63.4 190.4,60.1 208.2,46.9 226.0,46.9 226.0,156 30.0,156" fill="#36A2EB" opacity="0.08" />

    <!-- Sparkline -->
    <polyline points="30.0,146.1 47.8,136.2 65.6,129.6 83.5,116.3 101.3,99.8 119.1,89.9 136.9,76.7 154.7,70.0 172.5,63.4 190.4,60.1 208.2,46.9 226.0,46.9" fill="none" stroke="#36A2EB"
             stroke-width="2" stroke-linecap="round" stroke-linejoin="round" />

    <!-- Last point dot -->
    <circle cx="226.0" cy="46.9" r="3.5" fill="#36A2EB" />

    <!-- X-axis labels -->
    <text x="30" y="170" fill="#9ca3af" font-size="8"
          font-family="system-ui, -apple-system, sans-serif">W13</text>
    <text x="226" y="170" fill="#9ca3af" font-size="8"
          font-family="system-ui, -apple-system, sans-serif" text-anchor="end">W24</text>
    </g>
  <g transform="translate(534,20)">
    <rect width="236" height="192" fill="url(#cardBg)" rx="12"
          filter="url(#shadow)" stroke="#e2e8f0" stroke-width="1"/>

    <!-- Title -->
    <text x="12" y="22" fill="#1f2937" font-size="11" font-weight="700"
          font-family="system-ui, -apple-system, sans-serif">
        📱 Social Posts
    </text>

    <!-- Final value badge -->
    <text x="224" y="22" fill="#E6B800" font-size="12" font-weight="700"
          font-family="system-ui, -apple-system, sans-serif" text-anchor="end">
        84
    </text>

    <!-- Grid lines -->
    <line x1="30" y1="36" x2="226" y2="36"
          stroke="#e2e8f0" stroke-width="0.5" stroke-dasharray="4,3" />
    <line x1="30" y1="96.0" x2="226" y2="96.0"
          stroke="#e2e8f0" stroke-width="0.5" stroke-dasharray="4,3" />
    <line x1="30" y1="156" x2="226" y2="156"
          stroke="#e2e8f0" stroke-width="0.5" stroke-dasharray="4,3" />

    <!-- Y-axis ticks -->
    <text x="26" y="159" fill="#9ca3af" font-size="8"
          font-family="Monaco, monospace" text-anchor="end">0</text>
    <text x="26" y="104.5" fill="#9ca3af" font-size="8"
          font-family="Monaco, monospace" text-anchor="end">42</text>
    <text x="26" y="49.9" fill="#9ca3af" font-size="8"
          font-family="Monaco, monospace" text-anchor="end">84</text>

    <!-- Area fill -->
    <polygon points="30.0,150.8 47.8,149.5 65.6,149.5 83.5,145.6 101.3,132.6 119.1,119.6 136.9,106.6 154.7,96.3 172.5,79.4 190.4,65.1 208.2,46.9 226.0,46.9 226.0,156 30.0,156" fill="#E6B800" opacity="0.08" />

    <!-- Sparkline -->
    <polyline points="30.0,150.8 47.8,149.5 65.6,149.5 83.5,145.6 101.3,132.6 119.1,119.6 136.9,106.6 154.7,96.3 172.5,79.4 190.4,65.1 208.2,46.9 226.0,46.9" fill="none" stroke="#E6B800"
             stroke-width="2" stroke-linecap="round" stroke-linejoin="round" />

    <!-- Last point dot -->
    <circle cx="226.0" cy="46.9" r="3.5" fill="#E6B800" />

    <!-- X-axis labels -->
    <text x="30" y="170" fill="#9ca3af" font-size="8"
          font-family="system-ui, -apple-system, sans-serif">W13</text>
    <text x="226" y="170" fill="#9ca3af" font-size="8"
          font-family="system-ui, -apple-system, sans-serif" text-anchor="end">W24</text>
    </g>
  <g transform="translate(30,228)">
    <rect width="236" height="192" fill="url(#cardBg)" rx="12"
          filter="url(#shadow)" stroke="#e2e8f0" stroke-width="1"/>

    <!-- Title -->
    <text x="12" y="22" fill="#1f2937" font-size="11" font-weight="700"
          font-family="system-ui, -apple-system, sans-serif">
        ☕ Coffee Chats
    </text>

    <!-- Final value badge -->
    <text x="224" y="22" fill="#4BC0C0" font-size="12" font-weight="700"
          font-family="system-ui, -apple-system, sans-serif" text-anchor="end">
        21
    </text>

    <!-- Grid lines -->
    <line x1="30" y1="36" x2="226" y2="36"
          stroke="#e2e8f0" stroke-width="0.5" stroke-dasharray="4,3" />
    <line x1="30" y1="96.0" x2="226" y2="96.0"
          stroke="#e2e8f0" stroke-width="0.5" stroke-dasharray="4,3" />
    <line x1="30" y1="156" x2="226" y2="156"
          stroke="#e2e8f0" stroke-width="0.5" stroke-dasharray="4,3" />

    <!-- Y-axis ticks -->
    <text x="26" y="159" fill="#9ca3af" font-size="8"
          font-family="Monaco, monospace" text-anchor="end">0</text>
    <text x="26" y="107.1" fill="#9ca3af" font-size="8"
          font-family="Monaco, monospace" text-anchor="end">10</text>
    <text x="26" y="49.9" fill="#9ca3af" font-size="8"
          font-family="Monaco, monospace" text-anchor="end">21</text>

    <!-- Area fill -->
    <polygon points="30.0,150.8 47.8,145.6 65.6,145.6 83.5,135.2 101.3,119.6 119.1,104.1 136.9,93.7 154.7,83.3 172.5,67.7 190.4,62.5 208.2,46.9 226.0,46.9 226.0,156 30.0,156" fill="#4BC0C0" opacity="0.08" />

    <!-- Sparkline -->
    <polyline points="30.0,150.8 47.8,145.6 65.6,145.6 83.5,135.2 101.3,119.6 119.1,104.1 136.9,93.7 154.7,83.3 172.5,67.7 190.4,62.5 208.2,46.9 226.0,46.9" fill="none" stroke="#4BC0C0"
             stroke-width="2" stroke-linecap="round" stroke-linejoin="round" />

    <!-- Last point dot -->
    <circle cx="226.0" cy="46.9" r="3.5" fill="#4BC0C0" />

    <!-- X-axis labels -->
    <text x="30" y="170" fill="#9ca3af" font-size="8"
          font-family="system-ui, -apple-system, sans-serif">W13</text>
    <text x="226" y="170" fill="#9ca3af" font-size="8"
          font-family="system-ui, -apple-system, sans-serif" text-anchor="end">W24</text>
    </g>
  <g transform="translate(282,228)">
    <rect width="236" height="192" fill="url(#cardBg)" rx="12"
          filter="url(#shadow)" stroke="#e2e8f0" stroke-width="1"/>

    <!-- Title -->
    <text x="12" y="22" fill="#1f2937" font-size="11" font-weight="700"
          font-family="system-ui, -apple-system, sans-serif">
        🏃 Workouts
    </text>

    <!-- Final value badge -->
    <text x="224" y="22" fill="#9966FF" font-size="12" font-weight="700"
          font-family="system-ui, -apple-system, sans-serif" text-anchor="end">
        67
    </text>

    <!-- Grid lines -->
    <line x1="30" y1="36" x2="226" y2="36"
          stroke="#e2e8f0" stroke-width="0.5" stroke-dasharray="4,3" />
    <line x1="30" y1="96.0" x2="226" y2="96.0"
          stroke="#e2e8f0" stroke-width="0.5" stroke-dasharray="4,3" />
    <line x1="30" y1="156" x2="226" y2="156"
          stroke="#e2e8f0" stroke-width="0.5" stroke-dasharray="4,3" />

    <!-- Y-axis ticks -->
    <text x="26" y="159" fill="#9ca3af" font-size="8"
          font-family="Monaco, monospace" text-anchor="end">0</text>
    <text x="26" y="105.3" fill="#9ca3af" font-size="8"
          font-family="Monaco, monospace" text-anchor="end">33</text>
    <text x="26" y="49.9" fill="#9ca3af" font-size="8"
          font-family="Monaco, monospace" text-anchor="end">67</text>

    <!-- Area fill -->
    <polygon points="30.0,144.6 47.8,139.7 65.6,136.5 83.5,126.7 101.3,118.6 119.1,107.2 136.9,94.1 154.7,76.2 172.5,64.8 190.4,58.3 208.2,46.9 226.0,46.9 226.0,156 30.0,156" fill="#9966FF" opacity="0.08" />

    <!-- Sparkline -->
    <polyline points="30.0,144.6 47.8,139.7 65.6,136.5 83.5,126.7 101.3,118.6 119.1,107.2 136.9,94.1 154.7,76.2 172.5,64.8 190.4,58.3 208.2,46.9 226.0,46.9" fill="none" stroke="#9966FF"
             stroke-width="2" stroke-linecap="round" stroke-linejoin="round" />

    <!-- Last point dot -->
    <circle cx="226.0" cy="46.9" r="3.5" fill="#9966FF" />

    <!-- X-axis labels -->
    <text x="30" y="170" fill="#9ca3af" font-size="8"
          font-family="system-ui, -apple-system, sans-serif">W13</text>
    <text x="226" y="170" fill="#9ca3af" font-size="8"
          font-family="system-ui, -apple-system, sans-serif" text-anchor="end">W24</text>
    </g>
  <g transform="translate(534,228)">
    <rect width="236" height="192" fill="url(#cardBg)" rx="12"
          filter="url(#shadow)" stroke="#e2e8f0" stroke-width="1"/>

    <!-- Title -->
    <text x="12" y="22" fill="#1f2937" font-size="11" font-weight="700"
          font-family="system-ui, -apple-system, sans-serif">
        📝 Blog Posts
    </text>

    <!-- Final value badge -->
    <text x="224" y="22" fill="#FF9F40" font-size="12" font-weight="700"
          font-family="system-ui, -apple-system, sans-serif" text-anchor="end">
        0
    </text>

    <!-- Grid lines -->
    <line x1="30" y1="36" x2="226" y2="36"
          stroke="#e2e8f0" stroke-width="0.5" stroke-dasharray="4,3" />
    <line x1="30" y1="96.0" x2="226" y2="96.0"
          stroke="#e2e8f0" stroke-width="0.5" stroke-dasharray="4,3" />
    <line x1="30" y1="156" x2="226" y2="156"
          stroke="#e2e8f0" stroke-width="0.5" stroke-dasharray="4,3" />

    <!-- Y-axis ticks -->
    <text x="26" y="159" fill="#9ca3af" font-size="8"
          font-family="Monaco, monospace" text-anchor="end">0</text>

    <!-- Area fill -->
    <polygon points="30.0,156.0 47.8,156.0 65.6,156.0 83.5,156.0 101.3,156.0 119.1,156.0 136.9,156.0 154.7,156.0 172.5,156.0 190.4,156.0 208.2,156.0 226.0,156.0 226.0,156 30.0,156" fill="#FF9F40" opacity="0.08" />

    <!-- Sparkline -->
    <polyline points="30.0,156.0 47.8,156.0 65.6,156.0 83.5,156.0 101.3,156.0 119.1,156.0 136.9,156.0 154.7,156.0 172.5,156.0 190.4,156.0 208.2,156.0 226.0,156.0" fill="none" stroke="#FF9F40"
             stroke-width="2" stroke-linecap="round" stroke-linejoin="round" />

    <!-- Last point dot -->
    <circle cx="226.0" cy="156.0" r="3.5" fill="#FF9F40" />

    <!-- X-axis labels -->
    <text x="30" y="170" fill="#9ca3af" font-size="8"
          font-family="system-ui, -apple-system, sans-serif">W13</text>
    <text x="226" y="170" fill="#9ca3af" font-size="8"
          font-family="system-ui, -apple-system, sans-serif" text-anchor="end">W24</text>
    </g>
</svg>