<svg width="800" height="440" xmlns="http://www.w3.org/2000/svg">
  <defs>
    <linearGradient id="bg" x1="0%" y1="0%" x2="100%" y2="100%">
      <stop offset="0%" style="stop-color:#ffffff;stop-opacity:1" />
      <stop offset="100%" style="stop-color:#f8fafc;stop-opacity:1" />
    </linearGradient>
    <linearGradient id="cardBg" x1="0%" y1="0%" x2="100%" y2="100%">
      <stop offset="0%" style="stop-color:#ffffff;stop-opacity:1" />
      <stop offset="100%" style="stop-color:#f1f5f9;stop-opacity:1" />
    </linearGradient>
    <filter id="shadow">
      <feDropShadow dx="0" dy="2" stdDeviation="8" flood-color="#000000" flood-opacity="0.1"/>
    </filter>
  </defs>

  <rect width="800" height="440" fill="url(#bg)" rx="16"
        stroke="#e2e8f0" stroke-width="1"/>

  <g transform="translate(30,20)">
    <rect width="236" height="192" fill="url(#cardBg)" rx="12"
          filter="url(#shadow)" stroke="#e2e8f0" stroke-width="1"/>

    <!-- Title -->
    <text x="12" y="22" fill="#1f2937" font-size="11" font-weight="700"
          font-family="system-ui, -apple-system, sans-serif">
        🚀 Code Commits
    </text>

    <!-- Final value badge -->
    <text x="224" y="22" fill="#FF6384" font-size="12" font-weight="700"
          font-family="system-ui, -apple-system, sans-serif" text-anchor="end">
        1,112
    </text>

    <!-- Grid lines -->
    <line x1="30" y1="36" x2="226" y2="36"
          stroke="#e2e8f0" stroke-width="0.5" stroke-dasharray="4,3" />
    <line x1="30" y1="96.0" x2="226" y2="96.0"
          stroke="#e2e8f0" stroke-width="0.5" stroke-dasharray="4,3" />
    <line x1="30" y1="156" x2="226" y2="156"
          stroke="#e2e8f0" stroke-width="0.5" stroke-dasharray="4,3" />

    <!-- Y-axis ticks -->
    <text x="26" y="159" fill="#9ca3af" font-size="8"
          font-family="Monaco, monospace" text-anchor="end">0</text>
    <text x="26" y="104.5" fill="#9ca3af" font-size="8"
          font-family="Monaco, monospace" text-anchor="end">556</text>
    <text x="26" y="49.9" fill="#9ca3af" font-size="8"
          font-family="Monaco, monospace" text-anchor="end">1112</text>

    <!-- Area fill -->
    <polygon points="30.0,142.7 47.8,134.7 65.6,127.8 83.5,127.4 101.3,126.0 119.1,112.0 136.9,99.7 154.7,96.0 172.5,91.0 190.4,74.6 208.2,47.9 226.0,46.9 226.0,156 30.0,156" fill="#FF6384" opacity="0.08" />

    <!-- Sparkline -->
    <polyline points="30.0,142.7 47.8,134.7 65.6,127.8 83.5,127.4 101.3,126.0 119.1,112.0 136.9,99.7 154.7,96.0 172.5,91.0 190.4,74.6 208.2,47.9 226.0,46.9" fill="none" stroke="#FF6384"
             stroke-width="2" stroke-linecap="round" stroke-linejoin="round" />

    <!-- Last point dot -->
    <circle cx="226.0" cy="46.9" r="3.5" fill="#FF6384" />

    <!-- X-axis labels -->
    <text x="30" y="170" fill="#9ca3af" font-size="8"
          font-family="system-ui, -apple-system, sans-serif">W05</text>
    <text x="226" y="170" fill="#9ca3af" font-size="8"
          font-family="system-ui, -apple-system, sans-serif" text-anchor="end">W16</text>
    </g>
  <g transform="translate(282,20)">
    <rect width="236" height="192" fill="url(#cardBg)" rx="12"
          filter="url(#shadow)" stroke="#e2e8f0" stroke-width="1"/>

    <!-- Title -->
    <text x="12" y="22" fill="#1f2937" font-size="11" font-weight="700"
          font-family="system-ui, -apple-system, sans-serif">
        💬 User Talks
    </text>

    <!-- Final value badge -->
    <text x="224" y="22" fill="#36A2EB" font-size="12" font-weight="700"
          font-family="system-ui, -apple-system, sans-serif" text-anchor="end">
        43
    </text>

    <!-- Grid lines -->
    <line x1="30" y1="36" x2="226" y2="36"
          stroke="#e2e8f0" stroke-width="0.5" stroke-dasharray="4,3" />
    <line x1="30" y1="96.0" x2="226" y2="96.0"
          stroke="#e2e8f0" stroke-width="0.5" stroke-dasharray="4,3" />
    <line x1="30" y1="156" x2="226" y2="156"
          stroke="#e2e8f0" stroke-width="0.5" stroke-dasharray="4,3" />

    <!-- Y-axis ticks -->
    <text x="26" y="159" fill="#9ca3af" font-size="8"
          font-family="Monaco, monospace" text-anchor="end">0</text>
    <text x="26" y="105.7" fill="#9ca3af" font-size="8"
          font-family="Monaco, monospace" text-anchor="end">21</text>
    <text x="26" y="49.9" fill="#9ca3af" font-size="8"
          font-family="Monaco, monospace" text-anchor="end">43</text>

    <!-- Area fill -->
    <polygon points="30.0,148.4 47.8,138.2 65.6,135.7 83.5,133.2 101.3,120.5 119.1,110.3 136.9,90.0 154.7,77.4 172.5,69.7 190.4,62.1 208.2,57.1 226.0,46.9 226.0,156 30.0,156" fill="#36A2EB" opacity="0.08" />

    <!-- Sparkline -->
    <polyline points="30.0,148.4 47.8,138.2 65.6,135.7 83.5,133.2 101.3,120.5 119.1,110.3 136.9,90.0 154.7,77.4 172.5,69.7 190.4,62.1 208.2,57.1 226.0,46.9" fill="none" stroke="#36A2EB"
             stroke-width="2" stroke-linecap="round" stroke-linejoin="round" />

    <!-- Last point dot -->
    <circle cx="226.0" cy="46.9" r="3.5" fill="#36A2EB" />

    <!-- X-axis labels -->
    <text x="30" y="170" fill="#9ca3af" font-size="8"
          font-family="system-ui, -apple-system, sans-serif">W05</text>
    <text x="226" y="170" fill="#9ca3af" font-size="8"
          font-family="system-ui, -apple-system, sans-serif" text-anchor="end">W16</text>
    </g>
  <g transform="translate(534,20)">
    <rect width="236" height="192" fill="url(#cardBg)" rx="12"
          filter="url(#shadow)" stroke="#e2e8f0" stroke-width="1"/>

    <!-- Title -->
    <text x="12" y="22" fill="#1f2937" font-size="11" font-weight="700"
          font-family="system-ui, -apple-system, sans-serif">
        📱 Social Posts
    </text>

    <!-- Final value badge -->
    <text x="224" y="22" fill="#E6B800" font-size="12" font-weight="700"
          font-family="system-ui, -apple-system, sans-serif" text-anchor="end">
        85
    </text>

    <!-- Grid lines -->
    <line x1="30" y1="36" x2="226" y2="36"
          stroke="#e2e8f0" stroke-width="0.5" stroke-dasharray="4,3" />
    <line x1="30" y1="96.0" x2="226" y2="96.0"
          stroke="#e2e8f0" stroke-width="0.5" stroke-dasharray="4,3" />
    <line x1="30" y1="156" x2="226" y2="156"
          stroke="#e2e8f0" stroke-width="0.5" stroke-dasharray="4,3" />

    <!-- Y-axis ticks -->
    <text x="26" y="159" fill="#9ca3af" font-size="8"
          font-family="Monaco, monospace" text-anchor="end">0</text>
    <text x="26" y="105.1" fill="#9ca3af" font-size="8"
          font-family="Monaco, monospace" text-anchor="end">42</text>
    <text x="26" y="49.9" fill="#9ca3af" font-size="8"
          font-family="Monaco, monospace" text-anchor="end">85</text>

    <!-- Area fill -->
    <polygon points="30.0,135.5 47.8,108.5 65.6,97.0 83.5,93.1 101.3,80.3 119.1,72.6 136.9,64.9 154.7,57.2 172.5,52.0 190.4,50.8 208.2,50.8 226.0,46.9 226.0,156 30.0,156" fill="#E6B800" opacity="0.08" />

    <!-- Sparkline -->
    <polyline points="30.0,135.5 47.8,108.5 65.6,97.0 83.5,93.1 101.3,80.3 119.1,72.6 136.9,64.9 154.7,57.2 172.5,52.0 190.4,50.8 208.2,50.8 226.0,46.9" fill="none" stroke="#E6B800"
             stroke-width="2" stroke-linecap="round" stroke-linejoin="round" />

    <!-- Last point dot -->
    <circle cx="226.0" cy="46.9" r="3.5" fill="#E6B800" />

    <!-- X-axis labels -->
    <text x="30" y="170" fill="#9ca3af" font-size="8"
          font-family="system-ui, -apple-system, sans-serif">W05</text>
    <text x="226" y="170" fill="#9ca3af" font-size="8"
          font-family="system-ui, -apple-system, sans-serif" text-anchor="end">W16</text>
    </g>
  <g transform="translate(30,228)">
    <rect width="236" height="192" fill="url(#cardBg)" rx="12"
          filter="url(#shadow)" stroke="#e2e8f0" stroke-width="1"/>

    <!-- Title -->
    <text x="12" y="22" fill="#1f2937" font-size="11" font-weight="700"
          font-family="system-ui, -apple-system, sans-serif">
        ☕ Coffee Chats
    </text>

    <!-- Final value badge -->
    <text x="224" y="22" fill="#4BC0C0" font-size="12" font-weight="700"
          font-family="system-ui, -apple-system, sans-serif" text-anchor="end">
        18
    </text>

    <!-- Grid lines -->
    <line x1="30" y1="36" x2="226" y2="36"
          stroke="#e2e8f0" stroke-width="0.5" stroke-dasharray="4,3" />
    <line x1="30" y1="96.0" x2="226" y2="96.0"
          stroke="#e2e8f0" stroke-width="0.5" stroke-dasharray="4,3" />
    <line x1="30" y1="156" x2="226" y2="156"
          stroke="#e2e8f0" stroke-width="0.5" stroke-dasharray="4,3" />

    <!-- Y-axis ticks -->
    <text x="26" y="159" fill="#9ca3af" font-size="8"
          font-family="Monaco, monospace" text-anchor="end">0</text>
    <text x="26" y="104.5" fill="#9ca3af" font-size="8"
          font-family="Monaco, monospace" text-anchor="end">9</text>
    <text x="26" y="49.9" fill="#9ca3af" font-size="8"
          font-family="Monaco, monospace" text-anchor="end">18</text>

    <!-- Area fill -->
    <polygon points="30.0,143.9 47.8,143.9 65.6,131.8 83.5,125.7 101.3,113.6 119.1,107.5 136.9,83.3 154.7,71.2 172.5,65.1 190.4,59.0 208.2,59.0 226.0,46.9 226.0,156 30.0,156" fill="#4BC0C0" opacity="0.08" />

    <!-- Sparkline -->
    <polyline points="30.0,143.9 47.8,143.9 65.6,131.8 83.5,125.7 101.3,113.6 119.1,107.5 136.9,83.3 154.7,71.2 172.5,65.1 190.4,59.0 208.2,59.0 226.0,46.9" fill="none" stroke="#4BC0C0"
             stroke-width="2" stroke-linecap="round" stroke-linejoin="round" />

    <!-- Last point dot -->
    <circle cx="226.0" cy="46.9" r="3.5" fill="#4BC0C0" />

    <!-- X-axis labels -->
    <text x="30" y="170" fill="#9ca3af" font-size="8"
          font-family="system-ui, -apple-system, sans-serif">W05</text>
    <text x="226" y="170" fill="#9ca3af" font-size="8"
          font-family="system-ui, -apple-system, sans-serif" text-anchor="end">W16</text>
    </g>
  <g transform="translate(282,228)">
    <rect width="236" height="192" fill="url(#cardBg)" rx="12"
          filter="url(#shadow)" stroke="#e2e8f0" stroke-width="1"/>

    <!-- Title -->
    <text x="12" y="22" fill="#1f2937" font-size="11" font-weight="700"
          font-family="system-ui, -apple-system, sans-serif">
        🏃 Workouts
    </text>

    <!-- Final value badge -->
    <text x="224" y="22" fill="#9966FF" font-size="12" font-weight="700"
          font-family="system-ui, -apple-system, sans-serif" text-anchor="end">
        86
    </text>

    <!-- Grid lines -->
    <line x1="30" y1="36" x2="226" y2="36"
          stroke="#e2e8f0" stroke-width="0.5" stroke-dasharray="4,3" />
    <line x1="30" y1="96.0" x2="226" y2="96.0"
          stroke="#e2e8f0" stroke-width="0.5" stroke-dasharray="4,3" />
    <line x1="30" y1="156" x2="226" y2="156"
          stroke="#e2e8f0" stroke-width="0.5" stroke-dasharray="4,3" />

    <!-- Y-axis ticks -->
    <text x="26" y="159" fill="#9ca3af" font-size="8"
          font-family="Monaco, monospace" text-anchor="end">0</text>
    <text x="26" y="104.5" fill="#9ca3af" font-size="8"
          font-family="Monaco, monospace" text-anchor="end">43</text>
    <text x="26" y="49.9" fill="#9ca3af" font-size="8"
          font-family="Monaco, monospace" text-anchor="end">86</text>

    <!-- Area fill -->
    <polygon points="30.0,140.8 47.8,126.8 65.6,124.3 83.5,121.8 101.3,104.0 119.1,92.6 136.9,81.2 154.7,69.7 172.5,60.9 190.4,57.1 208.2,54.5 226.0,46.9 226.0,156 30.0,156" fill="#9966FF" opacity="0.08" />

    <!-- Sparkline -->
    <polyline points="30.0,140.8 47.8,126.8 65.6,124.3 83.5,121.8 101.3,104.0 119.1,92.6 136.9,81.2 154.7,69.7 172.5,60.9 190.4,57.1 208.2,54.5 226.0,46.9" fill="none" stroke="#9966FF"
             stroke-width="2" stroke-linecap="round" stroke-linejoin="round" />

    <!-- Last point dot -->
    <circle cx="226.0" cy="46.9" r="3.5" fill="#9966FF" />

    <!-- X-axis labels -->
    <text x="30" y="170" fill="#9ca3af" font-size="8"
          font-family="system-ui, -apple-system, sans-serif">W05</text>
    <text x="226" y="170" fill="#9ca3af" font-size="8"
          font-family="system-ui, -apple-system, sans-serif" text-anchor="end">W16</text>
    </g>
  <g transform="translate(534,228)">
    <rect width="236" height="192" fill="url(#cardBg)" rx="12"
          filter="url(#shadow)" stroke="#e2e8f0" stroke-width="1"/>

    <!-- Title -->
    <text x="12" y="22" fill="#1f2937" font-size="11" font-weight="700"
          font-family="system-ui, -apple-system, sans-serif">
        📝 Blog Posts
    </text>

    <!-- Final value badge -->
    <text x="224" y="22" fill="#FF9F40" font-size="12" font-weight="700"
          font-family="system-ui, -apple-system, sans-serif" text-anchor="end">
        9
    </text>

    <!-- Grid lines -->
    <line x1="30" y1="36" x2="226" y2="36"
          stroke="#e2e8f0" stroke-width="0.5" stroke-dasharray="4,3" />
    <line x1="30" y1="96.0" x2="226" y2="96.0"
          stroke="#e2e8f0" stroke-width="0.5" stroke-dasharray="4,3" />
    <line x1="30" y1="156" x2="226" y2="156"
          stroke="#e2e8f0" stroke-width="0.5" stroke-dasharray="4,3" />

    <!-- Y-axis ticks -->
    <text x="26" y="159" fill="#9ca3af" font-size="8"
          font-family="Monaco, monospace" text-anchor="end">0</text>
    <text x="26" y="110.5" fill="#9ca3af" font-size="8"
          font-family="Monaco, monospace" text-anchor="end">4</text>
    <text x="26" y="49.9" fill="#9ca3af" font-size="8"
          font-family="Monaco, monospace" text-anchor="end">9</text>

    <!-- Area fill -->
    <polygon points="30.0,156.0 47.8,156.0 65.6,119.6 83.5,95.4 101.3,46.9 119.1,46.9 136.9,46.9 154.7,46.9 172.5,46.9 190.4,46.9 208.2,46.9 226.0,46.9 226.0,156 30.0,156" fill="#FF9F40" opacity="0.08" />

    <!-- Sparkline -->
    <polyline points="30.0,156.0 47.8,156.0 65.6,119.6 83.5,95.4 101.3,46.9 119.1,46.9 136.9,46.9 154.7,46.9 172.5,46.9 190.4,46.9 208.2,46.9 226.0,46.9" fill="none" stroke="#FF9F40"
             stroke-width="2" stroke-linecap="round" stroke-linejoin="round" />

    <!-- Last point dot -->
    <circle cx="226.0" cy="46.9" r="3.5" fill="#FF9F40" />

    <!-- X-axis labels -->
    <text x="30" y="170" fill="#9ca3af" font-size="8"
          font-family="system-ui, -apple-system, sans-serif">W05</text>
    <text x="226" y="170" fill="#9ca3af" font-size="8"
          font-family="system-ui, -apple-system, sans-serif" text-anchor="end">W16</text>
    </g>
</svg>