<svg width="800" height="440" xmlns="http://www.w3.org/2000/svg">
  <defs>
    <linearGradient id="bg" x1="0%" y1="0%" x2="100%" y2="100%">
      <stop offset="0%" style="stop-color:#ffffff;stop-opacity:1" />
      <stop offset="100%" style="stop-color:#f8fafc;stop-opacity:1" />
    </linearGradient>
    <linearGradient id="cardBg" x1="0%" y1="0%" x2="100%" y2="100%">
      <stop offset="0%" style="stop-color:#ffffff;stop-opacity:1" />
      <stop offset="100%" style="stop-color:#f1f5f9;stop-opacity:1" />
    </linearGradient>
    <filter id="shadow">
      <feDropShadow dx="0" dy="2" stdDeviation="8" flood-color="#000000" flood-opacity="0.1"/>
    </filter>
  </defs>

  <rect width="800" height="440" fill="url(#bg)" rx="16"
        stroke="#e2e8f0" stroke-width="1"/>

  <g transform="translate(30,20)">
    <rect width="236" height="192" fill="url(#cardBg)" rx="12"
          filter="url(#shadow)" stroke="#e2e8f0" stroke-width="1"/>

    <!-- Title -->
    <text x="12" y="22" fill="#1f2937" font-size="11" font-weight="700"
          font-family="system-ui, -apple-system, sans-serif">
        🚀 Code Commits
    </text>

    <!-- Final value badge -->
    <text x="224" y="22" fill="#FF6384" font-size="12" font-weight="700"
          font-family="system-ui, -apple-system, sans-serif" text-anchor="end">
        1,259
    </text>

    <!-- Grid lines -->
    <line x1="30" y1="36" x2="226" y2="36"
          stroke="#e2e8f0" stroke-width="0.5" stroke-dasharray="4,3" />
    <line x1="30" y1="96.0" x2="226" y2="96.0"
          stroke="#e2e8f0" stroke-width="0.5" stroke-dasharray="4,3" />
    <line x1="30" y1="156" x2="226" y2="156"
          stroke="#e2e8f0" stroke-width="0.5" stroke-dasharray="4,3" />

    <!-- Y-axis ticks -->
    <text x="26" y="159" fill="#9ca3af" font-size="8"
          font-family="Monaco, monospace" text-anchor="end">0</text>
    <text x="26" y="104.5" fill="#9ca3af" font-size="8"
          font-family="Monaco, monospace" text-anchor="end">629</text>
    <text x="26" y="49.9" fill="#9ca3af" font-size="8"
          font-family="Monaco, monospace" text-anchor="end">1259</text>

    <!-- Area fill -->
    <polygon points="30.0,143.7 47.8,132.8 65.6,129.5 83.5,125.1 101.3,110.6 119.1,87.0 136.9,86.2 154.7,69.4 172.5,67.0 190.4,61.7 208.2,54.6 226.0,46.9 226.0,156 30.0,156" fill="#FF6384" opacity="0.08" />

    <!-- Sparkline -->
    <polyline points="30.0,143.7 47.8,132.8 65.6,129.5 83.5,125.1 101.3,110.6 119.1,87.0 136.9,86.2 154.7,69.4 172.5,67.0 190.4,61.7 208.2,54.6 226.0,46.9" fill="none" stroke="#FF6384"
             stroke-width="2" stroke-linecap="round" stroke-linejoin="round" />

    <!-- Last point dot -->
    <circle cx="226.0" cy="46.9" r="3.5" fill="#FF6384" />

    <!-- X-axis labels -->
    <text x="30" y="170" fill="#9ca3af" font-size="8"
          font-family="system-ui, -apple-system, sans-serif">W10</text>
    <text x="226" y="170" fill="#9ca3af" font-size="8"
          font-family="system-ui, -apple-system, sans-serif" text-anchor="end">W21</text>
    </g>
  <g transform="translate(282,20)">
    <rect width="236" height="192" fill="url(#cardBg)" rx="12"
          filter="url(#shadow)" stroke="#e2e8f0" stroke-width="1"/>

    <!-- Title -->
    <text x="12" y="22" fill="#1f2937" font-size="11" font-weight="700"
          font-family="system-ui, -apple-system, sans-serif">
        💬 User Talks
    </text>

    <!-- Final value badge -->
    <text x="224" y="22" fill="#36A2EB" font-size="12" font-weight="700"
          font-family="system-ui, -apple-system, sans-serif" text-anchor="end">
        45
    </text>

    <!-- Grid lines -->
    <line x1="30" y1="36" x2="226" y2="36"
          stroke="#e2e8f0" stroke-width="0.5" stroke-dasharray="4,3" />
    <line x1="30" y1="96.0" x2="226" y2="96.0"
          stroke="#e2e8f0" stroke-width="0.5" stroke-dasharray="4,3" />
    <line x1="30" y1="156" x2="226" y2="156"
          stroke="#e2e8f0" stroke-width="0.5" stroke-dasharray="4,3" />

    <!-- Y-axis ticks -->
    <text x="26" y="159" fill="#9ca3af" font-size="8"
          font-family="Monaco, monospace" text-anchor="end">0</text>
    <text x="26" y="105.7" fill="#9ca3af" font-size="8"
          font-family="Monaco, monospace" text-anchor="end">22</text>
    <text x="26" y="49.9" fill="#9ca3af" font-size="8"
          font-family="Monaco, monospace" text-anchor="end">45</text>

    <!-- Area fill -->
    <polygon points="30.0,146.3 47.8,126.9 65.6,114.8 83.5,107.5 101.3,100.2 119.1,95.4 136.9,85.7 154.7,73.6 172.5,66.3 190.4,56.6 208.2,51.8 226.0,46.9 226.0,156 30.0,156" fill="#36A2EB" opacity="0.08" />

    <!-- Sparkline -->
    <polyline points="30.0,146.3 47.8,126.9 65.6,114.8 83.5,107.5 101.3,100.2 119.1,95.4 136.9,85.7 154.7,73.6 172.5,66.3 190.4,56.6 208.2,51.8 226.0,46.9" fill="none" stroke="#36A2EB"
             stroke-width="2" stroke-linecap="round" stroke-linejoin="round" />

    <!-- Last point dot -->
    <circle cx="226.0" cy="46.9" r="3.5" fill="#36A2EB" />

    <!-- X-axis labels -->
    <text x="30" y="170" fill="#9ca3af" font-size="8"
          font-family="system-ui, -apple-system, sans-serif">W10</text>
    <text x="226" y="170" fill="#9ca3af" font-size="8"
          font-family="system-ui, -apple-system, sans-serif" text-anchor="end">W21</text>
    </g>
  <g transform="translate(534,20)">
    <rect width="236" height="192" fill="url(#cardBg)" rx="12"
          filter="url(#shadow)" stroke="#e2e8f0" stroke-width="1"/>

    <!-- Title -->
    <text x="12" y="22" fill="#1f2937" font-size="11" font-weight="700"
          font-family="system-ui, -apple-system, sans-serif">
        📱 Social Posts
    </text>

    <!-- Final value badge -->
    <text x="224" y="22" fill="#E6B800" font-size="12" font-weight="700"
          font-family="system-ui, -apple-system, sans-serif" text-anchor="end">
        77
    </text>

    <!-- Grid lines -->
    <line x1="30" y1="36" x2="226" y2="36"
          stroke="#e2e8f0" stroke-width="0.5" stroke-dasharray="4,3" />
    <line x1="30" y1="96.0" x2="226" y2="96.0"
          stroke="#e2e8f0" stroke-width="0.5" stroke-dasharray="4,3" />
    <line x1="30" y1="156" x2="226" y2="156"
          stroke="#e2e8f0" stroke-width="0.5" stroke-dasharray="4,3" />

    <!-- Y-axis ticks -->
    <text x="26" y="159" fill="#9ca3af" font-size="8"
          font-family="Monaco, monospace" text-anchor="end">0</text>
    <text x="26" y="105.2" fill="#9ca3af" font-size="8"
          font-family="Monaco, monospace" text-anchor="end">38</text>
    <text x="26" y="49.9" fill="#9ca3af" font-size="8"
          font-family="Monaco, monospace" text-anchor="end">77</text>

    <!-- Area fill -->
    <polygon points="30.0,147.5 47.8,139.0 65.6,130.5 83.5,124.8 101.3,123.4 119.1,123.4 136.9,119.2 154.7,105.0 172.5,90.8 190.4,76.7 208.2,65.3 226.0,46.9 226.0,156 30.0,156" fill="#E6B800" opacity="0.08" />

    <!-- Sparkline -->
    <polyline points="30.0,147.5 47.8,139.0 65.6,130.5 83.5,124.8 101.3,123.4 119.1,123.4 136.9,119.2 154.7,105.0 172.5,90.8 190.4,76.7 208.2,65.3 226.0,46.9" fill="none" stroke="#E6B800"
             stroke-width="2" stroke-linecap="round" stroke-linejoin="round" />

    <!-- Last point dot -->
    <circle cx="226.0" cy="46.9" r="3.5" fill="#E6B800" />

    <!-- X-axis labels -->
    <text x="30" y="170" fill="#9ca3af" font-size="8"
          font-family="system-ui, -apple-system, sans-serif">W10</text>
    <text x="226" y="170" fill="#9ca3af" font-size="8"
          font-family="system-ui, -apple-system, sans-serif" text-anchor="end">W21</text>
    </g>
  <g transform="translate(30,228)">
    <rect width="236" height="192" fill="url(#cardBg)" rx="12"
          filter="url(#shadow)" stroke="#e2e8f0" stroke-width="1"/>

    <!-- Title -->
    <text x="12" y="22" fill="#1f2937" font-size="11" font-weight="700"
          font-family="system-ui, -apple-system, sans-serif">
        ☕ Coffee Chats
    </text>

    <!-- Final value badge -->
    <text x="224" y="22" fill="#4BC0C0" font-size="12" font-weight="700"
          font-family="system-ui, -apple-system, sans-serif" text-anchor="end">
        24
    </text>

    <!-- Grid lines -->
    <line x1="30" y1="36" x2="226" y2="36"
          stroke="#e2e8f0" stroke-width="0.5" stroke-dasharray="4,3" />
    <line x1="30" y1="96.0" x2="226" y2="96.0"
          stroke="#e2e8f0" stroke-width="0.5" stroke-dasharray="4,3" />
    <line x1="30" y1="156" x2="226" y2="156"
          stroke="#e2e8f0" stroke-width="0.5" stroke-dasharray="4,3" />

    <!-- Y-axis ticks -->
    <text x="26" y="159" fill="#9ca3af" font-size="8"
          font-family="Monaco, monospace" text-anchor="end">0</text>
    <text x="26" y="104.5" fill="#9ca3af" font-size="8"
          font-family="Monaco, monospace" text-anchor="end">12</text>
    <text x="26" y="49.9" fill="#9ca3af" font-size="8"
          font-family="Monaco, monospace" text-anchor="end">24</text>

    <!-- Area fill -->
    <polygon points="30.0,151.5 47.8,133.3 65.6,124.2 83.5,119.6 101.3,115.1 119.1,115.1 136.9,106.0 154.7,92.4 172.5,78.7 190.4,69.6 208.2,60.5 226.0,46.9 226.0,156 30.0,156" fill="#4BC0C0" opacity="0.08" />

    <!-- Sparkline -->
    <polyline points="30.0,151.5 47.8,133.3 65.6,124.2 83.5,119.6 101.3,115.1 119.1,115.1 136.9,106.0 154.7,92.4 172.5,78.7 190.4,69.6 208.2,60.5 226.0,46.9" fill="none" stroke="#4BC0C0"
             stroke-width="2" stroke-linecap="round" stroke-linejoin="round" />

    <!-- Last point dot -->
    <circle cx="226.0" cy="46.9" r="3.5" fill="#4BC0C0" />

    <!-- X-axis labels -->
    <text x="30" y="170" fill="#9ca3af" font-size="8"
          font-family="system-ui, -apple-system, sans-serif">W10</text>
    <text x="226" y="170" fill="#9ca3af" font-size="8"
          font-family="system-ui, -apple-system, sans-serif" text-anchor="end">W21</text>
    </g>
  <g transform="translate(282,228)">
    <rect width="236" height="192" fill="url(#cardBg)" rx="12"
          filter="url(#shadow)" stroke="#e2e8f0" stroke-width="1"/>

    <!-- Title -->
    <text x="12" y="22" fill="#1f2937" font-size="11" font-weight="700"
          font-family="system-ui, -apple-system, sans-serif">
        🏃 Workouts
    </text>

    <!-- Final value badge -->
    <text x="224" y="22" fill="#9966FF" font-size="12" font-weight="700"
          font-family="system-ui, -apple-system, sans-serif" text-anchor="end">
        83
    </text>

    <!-- Grid lines -->
    <line x1="30" y1="36" x2="226" y2="36"
          stroke="#e2e8f0" stroke-width="0.5" stroke-dasharray="4,3" />
    <line x1="30" y1="96.0" x2="226" y2="96.0"
          stroke="#e2e8f0" stroke-width="0.5" stroke-dasharray="4,3" />
    <line x1="30" y1="156" x2="226" y2="156"
          stroke="#e2e8f0" stroke-width="0.5" stroke-dasharray="4,3" />

    <!-- Y-axis ticks -->
    <text x="26" y="159" fill="#9ca3af" font-size="8"
          font-family="Monaco, monospace" text-anchor="end">0</text>
    <text x="26" y="105.1" fill="#9ca3af" font-size="8"
          font-family="Monaco, monospace" text-anchor="end">41</text>
    <text x="26" y="49.9" fill="#9ca3af" font-size="8"
          font-family="Monaco, monospace" text-anchor="end">83</text>

    <!-- Area fill -->
    <polygon points="30.0,144.2 47.8,132.3 65.6,120.5 83.5,111.3 101.3,107.4 119.1,104.7 136.9,96.9 154.7,90.3 172.5,81.1 190.4,70.6 208.2,56.1 226.0,46.9 226.0,156 30.0,156" fill="#9966FF" opacity="0.08" />

    <!-- Sparkline -->
    <polyline points="30.0,144.2 47.8,132.3 65.6,120.5 83.5,111.3 101.3,107.4 119.1,104.7 136.9,96.9 154.7,90.3 172.5,81.1 190.4,70.6 208.2,56.1 226.0,46.9" fill="none" stroke="#9966FF"
             stroke-width="2" stroke-linecap="round" stroke-linejoin="round" />

    <!-- Last point dot -->
    <circle cx="226.0" cy="46.9" r="3.5" fill="#9966FF" />

    <!-- X-axis labels -->
    <text x="30" y="170" fill="#9ca3af" font-size="8"
          font-family="system-ui, -apple-system, sans-serif">W10</text>
    <text x="226" y="170" fill="#9ca3af" font-size="8"
          font-family="system-ui, -apple-system, sans-serif" text-anchor="end">W21</text>
    </g>
  <g transform="translate(534,228)">
    <rect width="236" height="192" fill="url(#cardBg)" rx="12"
          filter="url(#shadow)" stroke="#e2e8f0" stroke-width="1"/>

    <!-- Title -->
    <text x="12" y="22" fill="#1f2937" font-size="11" font-weight="700"
          font-family="system-ui, -apple-system, sans-serif">
        📝 Blog Posts
    </text>

    <!-- Final value badge -->
    <text x="224" y="22" fill="#FF9F40" font-size="12" font-weight="700"
          font-family="system-ui, -apple-system, sans-serif" text-anchor="end">
        0
    </text>

    <!-- Grid lines -->
    <line x1="30" y1="36" x2="226" y2="36"
          stroke="#e2e8f0" stroke-width="0.5" stroke-dasharray="4,3" />
    <line x1="30" y1="96.0" x2="226" y2="96.0"
          stroke="#e2e8f0" stroke-width="0.5" stroke-dasharray="4,3" />
    <line x1="30" y1="156" x2="226" y2="156"
          stroke="#e2e8f0" stroke-width="0.5" stroke-dasharray="4,3" />

    <!-- Y-axis ticks -->
    <text x="26" y="159" fill="#9ca3af" font-size="8"
          font-family="Monaco, monospace" text-anchor="end">0</text>

    <!-- Area fill -->
    <polygon points="30.0,156.0 47.8,156.0 65.6,156.0 83.5,156.0 101.3,156.0 119.1,156.0 136.9,156.0 154.7,156.0 172.5,156.0 190.4,156.0 208.2,156.0 226.0,156.0 226.0,156 30.0,156" fill="#FF9F40" opacity="0.08" />

    <!-- Sparkline -->
    <polyline points="30.0,156.0 47.8,156.0 65.6,156.0 83.5,156.0 101.3,156.0 119.1,156.0 136.9,156.0 154.7,156.0 172.5,156.0 190.4,156.0 208.2,156.0 226.0,156.0" fill="none" stroke="#FF9F40"
             stroke-width="2" stroke-linecap="round" stroke-linejoin="round" />

    <!-- Last point dot -->
    <circle cx="226.0" cy="156.0" r="3.5" fill="#FF9F40" />

    <!-- X-axis labels -->
    <text x="30" y="170" fill="#9ca3af" font-size="8"
          font-family="system-ui, -apple-system, sans-serif">W10</text>
    <text x="226" y="170" fill="#9ca3af" font-size="8"
          font-family="system-ui, -apple-system, sans-serif" text-anchor="end">W21</text>
    </g>
</svg>